<svg data-name="Layer 1" xmlns="http://www.w3.org/2000/svg" viewBox="0 0 447.69 132.98"><path d="M160.86 87.67V34.73H169v17a27.15 27.15 0 0 1 9.29-2.25c10.18 0 14.52 5 14.52 19 0 15.57-4.87 20.06-18.27 20.06-2.82.02-9.49-.54-13.68-.87zm23.66-19.17c0-8.46-2.17-11.68-7.19-11.68a31.94 31.94 0 0 0-8.33 1.42v22.69c1.8.15 4.42.3 5.54.3 8.33 0 9.98-3.67 9.98-12.73zm16.17.3c0-12.13 4.19-19.32 16.7-19.32s16.69 7.19 16.69 19.32c0 12.43-3.81 19.76-16.69 19.76s-16.7-7.33-16.7-19.76zm25.08 0c0-8.61-1.79-12.36-8.38-12.36S209 60.19 209 68.8s1.5 12.8 8.39 12.8 8.38-4.12 8.38-12.8zm19.47 5.84V57.27h-4.8v-7h4.8V39.45h8.16V50.3h10.26v7H253.4v16.44c0 5.62.15 7.56 4 7.56 1.5 0 4.34-.15 6.14-.3l.38 6.59a47.54 47.54 0 0 1-7.64 1c-8.42-.03-11.04-3.17-11.04-13.95zm33.01-24.34h5.62V53A23.88 23.88 0 0 1 295 49.56c9.44 0 13.56 5.76 13.56 19 0 14.75-4.72 19.92-16.33 19.92a51.46 51.46 0 0 1-8.38-.82v16.69h-5.62zm24.56 18.27c0-10.25-3.14-14-8.61-14a23.88 23.88 0 0 0-10.33 3V82.8a61.69 61.69 0 0 0 8.08.75c8.17 0 10.86-4.19 10.86-14.98zM319.2 50.3h5.62v5.1a40.65 40.65 0 0 1 13.63-5.92v5.69a55.23 55.23 0 0 0-13.63 5.09v27.48h-5.62zm25.01 18.95c0-14.23 6.14-19.69 15.65-19.69 10 0 15.12 5.24 15.12 17.52l-.37 4.26H349.9c.08 8 2.47 12.13 9.88 12.13 4.05 0 10.19-.37 13.71-.67l.15 4.49a121.44 121.44 0 0 1-14.6 1.2c-11.16 0-14.83-6.49-14.83-19.24zm25.08-2.4c0-9.28-2.84-12.58-9.43-12.58-6.36 0-10 3.52-10 12.58zm14.38 20.22l.33-4.87a120.69 120.69 0 0 0 12.36 1.27c6.14 0 9.36-1.42 9.36-6.44 0-3.89-1.95-4.86-10-6.06-8.46-1.35-12.5-3-12.5-10.48 0-8.24 6.66-10.93 13.48-10.93A92.7 92.7 0 0 1 410.17 51l-.17 4.84a112.84 112.84 0 0 0-13.1-1.19c-4.64 0-8.09 1.19-8.09 5.69 0 3.44 1.72 4.41 9.66 5.76 9.36 1.57 12.88 3.45 12.88 10.71 0 8.76-5.54 11.68-14.53 11.68a99.4 99.4 0 0 1-13.15-1.42zm36.33 0l.3-4.87a120.52 120.52 0 0 0 12.35 1.27c6.14 0 9.36-1.42 9.36-6.44 0-3.89-1.95-4.86-10-6.06-8.46-1.35-12.51-3-12.51-10.48 0-8.24 6.67-10.93 13.48-10.93a92.7 92.7 0 0 1 13.5 1.44l-.15 4.86a112.84 112.84 0 0 0-13.1-1.19c-4.64 0-8.09 1.19-8.09 5.69 0 3.44 1.73 4.41 9.66 5.76 9.36 1.57 12.88 3.45 12.88 10.71 0 8.76-5.54 11.68-14.53 11.68A99.58 99.58 0 0 1 420 87.07z"/><path d="M96.32 81l8.6 5 8.6 5a6.42 6.42 0 0 1 3.28 5.7v19.85a6.42 6.42 0 0 1-3.28 5.7l-8.6 5-8.6 5a6.42 6.42 0 0 1-6.58 0l-8.59-5-8.6-5a6.43 6.43 0 0 1-3.29-5.7V97.78L29.1 74.6l7.83 11.7-9.87 5.7a6.42 6.42 0 0 1-6.58 0l-8.59-5-8.6-5A6.43 6.43 0 0 1 0 76.37V56.52a6.43 6.43 0 0 1 3.29-5.7l8.6-5 8.59-5a6.46 6.46 0 0 1 6.58 0l8.6 5 7.57 4.37 26-15V16.53a6.43 6.43 0 0 1 3.29-5.7l8.6-5 8.59-5a6.42 6.42 0 0 1 6.58 0l8.6 5 8.6 5a6.42 6.42 0 0 1 3.28 5.7v19.85a6.42 6.42 0 0 1-3.28 5.7l-8.6 5-8.6 5a6.46 6.46 0 0 1-6.58 0l-8.59-5-.52-.3 9.1-13.42-16.12 9.31-26 15v17.61l26 15 7.57-4.37 8.59-5a6.42 6.42 0 0 1 6.58.09z" fill-rule="evenodd"/></svg>